<?xml version="1.0" encoding="utf-8"?>
<!-- Generator: Adobe Illustrator 22.1.0, SVG Export Plug-In . SVG Version: 6.00 Build 0)  -->
<svg version="1.1" id="Layer_1" xmlns="http://www.w3.org/2000/svg" xmlns:xlink="http://www.w3.org/1999/xlink" x="0px" y="0px"
	 viewBox="0 0 800 232" style="enable-background:new 0 0 800 232;" xml:space="preserve">
<style type="text/css">
	.st0{fill:none;stroke:#404040;stroke-width:4;stroke-miterlimit:10;}
	.st1{fill:#B18BE8;stroke:#404040;stroke-width:4;stroke-miterlimit:10;}
	.st2{fill:#4ED1A1;stroke:#404040;stroke-width:4;stroke-miterlimit:10;}
	.st3{fill:#B3E3FF;stroke:#404040;stroke-width:4;stroke-miterlimit:10;}
	.st4{fill:#FFFFFF;}
	.st5{font-family:'MyriadPro-Regular';}
	.st6{font-size:15px;}
</style>
<g id="using_x5F_branches">
	<path class="st0" d="M264.5,74.2c0,22.6-18.4,41-41,41 M264.5,74.2c0-22.6,18.4-41,41-41h160.4"/>
	<circle class="st1" cx="348.9" cy="33.2" r="21"/>
	<circle class="st1" cx="444.9" cy="33.2" r="21"/>
	<path class="st0" d="M545.2,156.2c0-22.6-18.4-41-41-41 M545.2,156.2c0,22.6,18.4,41,41,41h160.4"/>
	<circle class="st2" cx="629.5" cy="197.2" r="21"/>
	<circle class="st2" cx="725.5" cy="197.2" r="21"/>
	<path class="st3" d="M53.5,115.2h555"/>
	<circle class="st3" cx="74.5" cy="115.2" r="21"/>
	<circle class="st3" cx="170.5" cy="115.2" r="21"/>
	<circle class="st3" cx="347.9" cy="115.2" r="21"/>
	<circle class="st3" cx="444.9" cy="115.2" r="21"/>
	<circle class="st3" cx="629.5" cy="115.2" r="21"/>
</g>
<text transform="matrix(1 0 0 1 53.5 85)" class="st4 st5 st6">Master</text>
<text transform="matrix(1 0 0 1 608.5 168)" class="st4 st5 st6">Dev B</text>
<text transform="matrix(1 0 0 1 331 69)" class="st4 st5 st6">Dev A</text>
</svg>
